#!OML:ASF I:\golf\golf\golf 2\Subject 1\2002-09-07\Subject1.ASF
:FULLY-SPECIFIED
:DEGREES
153
root -8.10446 17.4825 1.86598 -13.2595 68.0848 -27.4835
lowerback 4.2873 -4.00916 -11.8999
upperback 4.24011 -5.5617 0.74748
thorax 3.30827 -3.14066 7.45949
lowerneck -9.15531 12.9806 3.27111
upperneck 28.1607 21.3451 -8.71036
head 12.153 9.10163 -0.766336
rclavicle 7.95139e-015 -3.18055e-014
rhumerus -9.22966 -8.50464 -93.7431
rradius 83.4704
rwrist -54.928
rhand -57.168 15.9339
rfingers 7.12502
rthumb -29.4519 -11.7512
lclavicle 7.95139e-015 -3.18055e-014
lhumerus 80.5803 -64.323 32.9295
lradius 26.5281
lwrist -1.19863
lhand -8.05466 20.736
lfingers 7.12502
lthumb -162.144 -130.064
rfemur -35.6504 2.42358 26.3719
rtibia 38.3791
rfoot -11.9483 10.7869
rtoes 9.84675
lfemur -13.75 7.00387 6.38997
ltibia 23.676
lfoot -10.5997 15.2413
ltoes -24.9668
154
root -8.09482 17.4751 1.91096 -12.9815 67.5911 -27.0006
lowerback 4.36426 -4.23782 -12.3251
upperback 4.20795 -5.88686 0.696843
thorax 3.34861 -3.31576 7.63816
lowerneck -8.82374 13.377 3.34174
upperneck 27.863 21.8871 -8.84848
head 12.0388 9.35942 -0.770627
rclavicle -2.3059e-014 4.13472e-014
rhumerus -8.61495 -8.67003 -93.451
rradius 84.8981
rwrist -53.7302
rhand -57.5013 19.1681
rfingers 7.12502
rthumb -29.77 -8.46057
lclavicle -2.3059e-014 4.13472e-014
lhumerus 80.3526 -63.5892 34.3534
lradius 26.4481
lwrist -1.83711
lhand -10.4833 18.828
lfingers 7.12502
lthumb -164.482 -131.775
rfemur -35.4991 2.74651 26.5345
rtibia 38.6543
rfoot -12.0487 10.9579
rtoes 10.1141
lfemur -13.0588 6.99774 6.5382
ltibia 23.5001
lfoot -10.6353 15.6209
ltoes -25.216
155
root -8.08341 17.4656 1.93657 -12.8485 67.5322 -26.8271
lowerback 4.44375 -4.64812 -12.5318
upperback 4.15996 -6.45302 0.718538
thorax 3.41161 -3.6073 7.76313
lowerneck -8.63886 13.7757 3.28071
upperneck 27.6055 22.5039 -9.10436
head 11.98 9.61582 -0.772272
rclavicle 8.74653e-014 2.8625e-014
rhumerus -7.76627 -8.94425 -92.9446
rradius 86.2995
rwrist -51.9854
rhand -57.5624 19.2914
rfingers 7.12502
rthumb -29.8284 -8.32682
lclavicle 8.74653e-014 2.8625e-014
lhumerus 80.5504 -62.6643 35.4153
lradius 26.4454
lwrist -2.30345
lhand -12.7957 17.3699
lfingers 7.12502
lthumb -166.71 -133.074
rfemur -35.5539 2.64262 26.6338
rtibia 38.9098
rfoot -12.1881 11.117
rtoes 9.99833
lfemur -12.7935 6.61347 6.60482
ltibia 23.3471
lfoot -10.9126 15.8742
ltoes -23.7666
156
root -8.07124 17.4567 1.96607 -12.697 67.2967 -26.665
lowerback 4.50285 -4.99944 -12.6806
upperback 4.07733 -6.94055 0.746492
thorax 3.42717 -3.85389 7.8641
lowerneck -8.44839 14.1651 3.17228
upperneck 27.2887 23.0893 -9.32975
head 11.885 9.86304 -0.764705
rclavicle -6.52014e-014 1.90833e-014
rhumerus -6.88415 -8.97085 -92.2898
rradius 87.5385
rwrist -50.4943
rhand -57.8057 20.3223
rfingers 7.12502
rthumb -30.0605 -7.25401
lclavicle -6.52014e-014 1.90833e-014
lhumerus 80.9911 -61.742 36.1653
lradius 26.608
lwrist -3.00872
lhand -13.538 16.2974
lfingers 7.12502
lthumb -167.425 -134.101
rfemur -35.6128 2.75177 26.7812
rtibia 39.1625
rfoot -12.3553 11.2383
rtoes 9.87843
lfemur -12.4874 6.65812 6.69374
ltibia 23.1982
lfoot -10.675 16.1713
ltoes -25.0474
157
root -8.05929 17.4516 2.00082 -12.5604 66.9792 -26.5157
lowerback 4.50956 -5.21728 -12.6823
upperback 4.01044 -7.23786 0.746866
thorax 3.42138 -3.99945 7.8562
lowerneck -8.34326 14.4473 2.82279
upperneck 26.9568 23.4745 -9.31713
head 11.7175 10.0269 -0.67427
rclavicle -1.59028e-014 5.40694e-014
rhumerus -5.96598 -9.30727 -91.5624
rradius 88.7285
rwrist -48.6881
rhand -58.0464 21.3799
rfingers 7.12502
rthumb -30.2901 -6.15441
lclavicle -1.59028e-014 5.40694e-014
lhumerus 81.4697 -61.0324 37.1594
lradius 26.7581
lwrist -3.80199
lhand -13.6206 14.9385
lfingers 7.12502
lthumb -167.505 -135.455
rfemur -35.6361 3.06334 26.9353
rtibia 39.4311
rfoot -12.5477 11.2058
rtoes 9.66239
lfemur -12.159 6.88935 6.80278
ltibia 23.0526
lfoot -10.1314 16.4974
ltoes -27.7707
158
root -8.05067 17.4306 2.03746 -12.5788 66.5957 -26.5503
lowerback 4.46433 -5.22655 -12.4732
upperback 4.00758 -7.24248 0.813674
thorax 3.42394 -3.99824 7.80801
lowerneck -8.69494 14.5514 1.98704
upperneck 26.8884 23.6386 -8.96036
head 11.6098 10.0517 -0.399739
rclavicle 6.36111e-015 -3.18055e-015
rhumerus -4.85504 -10.1633 -90.5073
rradius 89.8995
rwrist -46.5693
rhand -58.3923 21.8561
rfingers 7.12502
rthumb -30.6201 -5.61714
lclavicle 6.36111e-015 -3.18055e-015
lhumerus 83.0711 -60.5381 37.5073
lradius 26.8571
lwrist -4.29464
lhand -14.4686 13.3773
lfingers 7.12502
lthumb -168.323 -136.968
rfemur -35.7076 3.31099 27.2243
rtibia 39.7152
rfoot -12.7005 11.2922
rtoes 9.94314
lfemur -11.7229 6.6899 7.13106
ltibia 22.9028
lfoot -10.8553 16.6426
ltoes -24.7023
159
root -8.0427 17.4094 2.07471 -12.706 66.1647 -26.7031
lowerback 4.62755 -5.71952 -12.724
upperback 3.85059 -7.93911 0.771008
thorax 3.35766 -4.34159 7.89304
lowerneck -8.40823 15.1685 2.69974
upperneck 26.6846 24.5163 -9.44307
head 11.709 10.4658 -0.537351
rclavicle 1.59028e-015 1.27222e-014
rhumerus -3.94195 -9.53077 -90.3282
rradius 90.9184
rwrist -44.4894
rhand -59.0212 22.2032
rfingers 7.12502
rthumb -31.2195 -5.15624
lclavicle 1.59028e-015 1.27222e-014
lhumerus 82.5107 -59.5532 38.6434
lradius 26.8903
lwrist -4.65028
lhand -15.465 11.7615
lfingers 7.12502
lthumb -169.284 -138.532
rfemur -35.7787 3.62031 27.5782
rtibia 39.9853
rfoot -12.8449 11.3649
rtoes 10.1498
lfemur -11.2425 6.37661 7.53223
ltibia 22.7174
lfoot -11.7898 16.7828
ltoes -20.4963
160
root -8.03133 17.4017 2.10874 -12.6549 65.7782 -26.6399
lowerback 4.7144 -5.99981 -12.7738
upperback 3.71507 -8.33313 0.652294
thorax 3.24449 -4.5229 7.79337
lowerneck -8.02591 15.5398 3.21526
upperneck 26.3572 25.0047 -9.79823
head 11.6723 10.7228 -0.680576
rclavicle -1.7016e-013 4.13472e-014
rhumerus -3.10902 -9.34823 -89.8052
rradius 92.0273
rwrist -42.7513
rhand -59.6024 23.8424
rfingers 7.12502
rthumb -31.7733 -3.40877
lclavicle -1.7016e-013 4.13472e-014
lhumerus 83.2825 -58.8808 38.7425
lradius 27.1028
lwrist -4.51733
lhand -16.0355 10.4527
lfingers 7.12502
lthumb -169.834 -139.813
rfemur -35.7825 4.09953 27.7724
rtibia 40.2351
rfoot -13.0847 11.1523
rtoes 9.4235
lfemur -10.7911 6.16367 7.74685
ltibia 22.5046
lfoot -11.9435 17.2334
ltoes -19.9415
